<svg width="26" height="28" viewBox="0 0 26 28" fill="none" xmlns="http://www.w3.org/2000/svg">
<g id="freepik  text box  inject 10">
<g id="freepik    inject 10">
<g id="freepik  speech bubble  inject 10">
<g id="freepik  speach bubble  inject 10">
<path id="Vector" d="M22.0677 0.287835L0.583192 12.7136C0.427926 12.8154 0.298457 12.952 0.204984 13.1124C0.111511 13.2729 0.0565913 13.4528 0.0445557 13.6381V25.627C0.0550101 25.8126 0.109263 25.9932 0.202879 26.1539C0.296495 26.3146 0.426815 26.4508 0.583192 26.5515L2.70725 27.7504C2.86551 27.8276 3.0393 27.8678 3.2154 27.8678C3.3915 27.8678 3.56529 27.8276 3.72355 27.7504L25.2182 15.3755C25.3705 15.2714 25.4972 15.1341 25.5888 14.9739C25.6803 14.8138 25.7343 14.635 25.7467 14.4509V2.46208C25.7362 2.27642 25.682 2.09586 25.5884 1.93517C25.4948 1.77448 25.3644 1.63822 25.2081 1.53752L23.0942 0.338638C22.9371 0.256001 22.7638 0.20863 22.5866 0.199855C22.4093 0.191081 22.2322 0.221112 22.0677 0.287835Z" fill="#4CAF4F"/>
<path id="Vector_2" opacity="0.4" d="M22.0677 0.287835L0.583192 12.7136C0.427926 12.8154 0.298457 12.952 0.204984 13.1124C0.111511 13.2729 0.0565913 13.4528 0.0445557 13.6381V25.627C0.0550101 25.8126 0.109263 25.9932 0.202879 26.1539C0.296495 26.3146 0.426815 26.4508 0.583192 26.5515L2.70725 27.7504C2.86551 27.8276 3.0393 27.8678 3.2154 27.8678C3.3915 27.8678 3.56529 27.8276 3.72355 27.7504L25.2182 15.3755C25.3705 15.2714 25.4972 15.1341 25.5888 14.9739C25.6803 14.8138 25.7343 14.635 25.7467 14.4509V2.46208C25.7362 2.27642 25.682 2.09586 25.5884 1.93517C25.4948 1.77448 25.3644 1.63822 25.2081 1.53752L23.0942 0.338638C22.9371 0.256001 22.7638 0.20863 22.5866 0.199855C22.4093 0.191081 22.2322 0.221112 22.0677 0.287835Z" fill="#103E13"/>
<path id="Vector_3" d="M25.7867 2.30888C25.7867 2.04472 25.5327 1.94313 25.2583 2.09553L3.77374 14.4806C3.61671 14.5785 3.48729 14.7149 3.39771 14.8768L0.206543 13.048C0.292046 12.8891 0.418328 12.7559 0.57241 12.6619L22.0569 0.28705C22.2238 0.202276 22.4084 0.158081 22.5956 0.158081C22.7828 0.158081 22.9673 0.202276 23.1342 0.28705L25.2583 1.53673C25.3961 1.62064 25.5144 1.73287 25.6056 1.866C25.6967 1.99912 25.7584 2.15008 25.7867 2.30888Z" fill="#4CAF4F"/>
<path id="Vector_4" d="M25.269 2.09557L3.77432 14.4807C3.61946 14.5797 3.49064 14.7144 3.39868 14.8735C3.30671 15.0326 3.2543 15.2115 3.24585 15.3951V27.3941C3.24585 27.7294 3.47959 27.8716 3.77432 27.6989L25.269 15.324C25.4229 15.2215 25.5508 15.0846 25.6426 14.9241C25.7343 14.7636 25.7874 14.584 25.7975 14.3994V2.41053C25.7975 2.06509 25.6145 1.93301 25.269 2.09557Z" fill="#4CAF4F"/>
<g id="Group" opacity="0.2">
<path id="Vector_5" opacity="0.2" d="M25.269 2.09557L3.77432 14.4807C3.61946 14.5797 3.49064 14.7144 3.39868 14.8735C3.30671 15.0326 3.2543 15.2115 3.24585 15.3951V27.3941C3.24585 27.7294 3.47959 27.8716 3.77432 27.6989L25.269 15.324C25.4229 15.2215 25.5508 15.0846 25.6426 14.9241C25.7343 14.7636 25.7874 14.584 25.7975 14.3994V2.41053C25.7975 2.06509 25.6145 1.93301 25.269 2.09557Z" fill="#103E13"/>
</g>
</g>
</g>
</g>
<path id="Vector_6" d="M8.65254 14.6838C8.66107 14.6749 8.67133 14.6678 8.68268 14.663C8.69403 14.6581 8.70625 14.6556 8.71859 14.6556C8.73094 14.6556 8.74316 14.6581 8.75451 14.663C8.76586 14.6678 8.77611 14.6749 8.78465 14.6838C8.8062 14.7048 8.82284 14.7302 8.83338 14.7583C8.84393 14.7864 8.84811 14.8165 8.84563 14.8464V21.674C8.84327 21.7555 8.82241 21.8354 8.78465 21.9076C8.75788 21.9712 8.71162 22.0245 8.65254 22.06L7.7582 22.5782C7.74966 22.5871 7.7394 22.5942 7.72805 22.5991C7.7167 22.6039 7.70448 22.6064 7.69214 22.6064C7.67979 22.6064 7.66758 22.6039 7.65622 22.5991C7.64487 22.5942 7.63461 22.5871 7.62608 22.5782C7.62608 22.5782 7.62608 22.4969 7.62608 22.4156V19.8248L6.10163 20.7087V23.2894C6.10214 23.3713 6.08111 23.4519 6.04066 23.5231C6.01669 23.588 5.9743 23.6445 5.9187 23.6856L5.0142 24.2038C4.99579 24.2195 4.97237 24.2282 4.94814 24.2282C4.92392 24.2282 4.90049 24.2195 4.88208 24.2038C4.8619 24.148 4.8619 24.0869 4.88208 24.0311V17.2035C4.86796 17.1263 4.86796 17.0471 4.88208 16.9699C4.91228 16.9058 4.95763 16.85 5.0142 16.8073L5.9187 16.2891C5.93629 16.2759 5.95769 16.2688 5.97968 16.2688C6.00167 16.2688 6.02307 16.2759 6.04066 16.2891C6.06245 16.312 6.07914 16.3392 6.08965 16.369C6.10017 16.3987 6.10425 16.4304 6.10163 16.4618V19.0019L7.62608 18.1281V15.5779C7.60791 15.5011 7.60791 15.4211 7.62608 15.3442C7.65623 15.2829 7.70175 15.2304 7.7582 15.1918L8.65254 14.6838Z" fill="#F5F7FA"/>
<path id="Vector_7" d="M13.6731 11.7882C13.6816 11.7793 13.6919 11.7722 13.7032 11.7673C13.7146 11.7625 13.7268 11.76 13.7391 11.76C13.7515 11.76 13.7637 11.7625 13.7751 11.7673C13.7864 11.7722 13.7967 11.7793 13.8052 11.7882C13.8247 11.8406 13.8247 11.8983 13.8052 11.9508V13.0684C13.8205 13.1455 13.8205 13.2249 13.8052 13.302C13.778 13.368 13.732 13.4245 13.6731 13.4646L12.4637 14.1656V19.581C12.4594 19.6654 12.4387 19.7483 12.4027 19.8248C12.3725 19.8889 12.3272 19.9447 12.2706 19.9874L11.3661 20.5055C11.3464 20.5182 11.3235 20.525 11.3 20.525C11.2766 20.525 11.2537 20.5182 11.234 20.5055C11.2146 20.4496 11.2146 20.3888 11.234 20.3328V14.9175L10.0246 15.6084C10.0062 15.6241 9.98274 15.6328 9.95852 15.6328C9.93429 15.6328 9.91086 15.6241 9.89245 15.6084C9.85791 15.5575 9.84014 15.4971 9.84164 15.4357V14.3181C9.84271 14.2375 9.85999 14.1581 9.89245 14.0844C9.9197 14.0185 9.96563 13.962 10.0246 13.9218L13.6731 11.7882Z" fill="#F5F7FA"/>
<path id="Vector_8" d="M16.8236 15.4967C16.7868 15.4612 16.7559 15.42 16.7322 15.3747L16.0817 14.0031V17.4982C16.0845 17.5791 16.067 17.6594 16.0309 17.7319C16.0037 17.7978 15.9578 17.8543 15.8988 17.8944L15.0045 18.4126C14.9861 18.4283 14.9626 18.437 14.9384 18.437C14.9142 18.437 14.8907 18.4283 14.8723 18.4126C14.8609 18.3852 14.855 18.3559 14.855 18.3262C14.855 18.2966 14.8609 18.2672 14.8723 18.2399V11.4225C14.8534 11.3457 14.8534 11.2655 14.8723 11.1888C14.8996 11.1229 14.9455 11.0664 15.0045 11.0262L15.7972 10.569C15.8886 10.569 15.9598 10.569 16.0004 10.569C16.0358 10.602 16.0666 10.6396 16.0919 10.6808L17.2098 12.9668L18.3176 9.40061C18.3409 9.32337 18.3715 9.24852 18.4091 9.17709C18.4476 9.07793 18.5194 8.99528 18.6123 8.94339L19.405 8.48619C19.4136 8.47728 19.4238 8.47019 19.4352 8.46534C19.4465 8.4605 19.4587 8.45801 19.4711 8.45801C19.4834 8.45801 19.4957 8.4605 19.507 8.46534C19.5184 8.47019 19.5286 8.47728 19.5371 8.48619C19.549 8.51166 19.5551 8.5394 19.5551 8.56747C19.5551 8.59555 19.549 8.62329 19.5371 8.64876V15.4763C19.5561 15.5531 19.5561 15.6333 19.5371 15.71C19.5069 15.7741 19.4616 15.8299 19.405 15.8726L18.5107 16.3907C18.491 16.4034 18.4681 16.4102 18.4446 16.4102C18.4212 16.4102 18.3983 16.4034 18.3786 16.3907C18.3671 16.3634 18.3612 16.334 18.3612 16.3044C18.3612 16.2747 18.3671 16.2454 18.3786 16.218V12.7128L17.7281 14.8261C17.7031 14.906 17.6725 14.9841 17.6367 15.0598C17.6025 15.136 17.5458 15.1998 17.4741 15.2427L17.0371 15.4865C16.9151 15.5271 16.8643 15.5373 16.8236 15.4967Z" fill="#F5F7FA"/>
<path id="Vector_9" d="M24.263 11.3818C24.263 11.3818 24.3544 11.3818 24.3849 11.3818C24.4065 11.4027 24.4231 11.4281 24.4336 11.4563C24.4442 11.4844 24.4484 11.5145 24.4459 11.5444V12.7128C24.4464 12.7947 24.4254 12.8752 24.3849 12.9464C24.3641 13.013 24.321 13.0704 24.263 13.109L21.0819 14.9378C21.0635 14.9536 21.0401 14.9622 21.0159 14.9622C20.9917 14.9622 20.9682 14.9536 20.9498 14.9378C20.9305 14.8819 20.9305 14.821 20.9498 14.7651V7.93757C20.9358 7.86372 20.9358 7.78789 20.9498 7.71405C20.9771 7.64814 21.023 7.59163 21.0819 7.55148L21.9763 7.03333C21.9848 7.02441 21.9951 7.01732 22.0064 7.01248C22.0178 7.00763 22.03 7.00513 22.0423 7.00513C22.0547 7.00513 22.0669 7.00763 22.0783 7.01248C22.0896 7.01732 22.0999 7.02441 22.1084 7.03333C22.1299 7.05424 22.1466 7.07966 22.1571 7.10777C22.1677 7.13588 22.1719 7.16597 22.1694 7.19589V12.6213L24.263 11.3818Z" fill="#F5F7FA"/>
</g>
</svg>
