<svg width="29" height="37" viewBox="0 0 29 37" fill="none" xmlns="http://www.w3.org/2000/svg">
<g id="freepik  speech bubbles  inject 10">
<g id="freepik  speech bubble  inject 10">
<g id="freepik  speech bubble  inject 10_2">
<path id="Vector" d="M24.0477 0.269281L6.25229 10.5512C6.06837 10.6742 5.91568 10.8382 5.8063 11.0305C5.69692 11.2227 5.63387 11.4378 5.62219 11.6587V33.4012C5.63326 33.6206 5.69729 33.834 5.80878 34.0233C5.92027 34.2127 6.07593 34.3722 6.26246 34.4883L8.78289 35.931C8.98216 36.0288 9.20116 36.0796 9.42313 36.0796C9.6451 36.0796 9.86413 36.0288 10.0634 35.931L27.8588 25.6389C28.0425 25.5182 28.1952 25.356 28.3047 25.1654C28.4141 24.9747 28.4772 24.7611 28.4889 24.5416V2.79913C28.4769 2.57856 28.4126 2.36401 28.3013 2.17321C28.1899 1.98241 28.0348 1.82083 27.8486 1.70184L25.379 0.259119C25.1731 0.152144 24.9441 0.0971475 24.7121 0.0989184C24.48 0.100689 24.2519 0.159176 24.0477 0.269281Z" fill="#333333"/>
<path id="Vector_2" d="M10.0634 35.9209C9.86351 36.0165 9.64472 36.0661 9.42313 36.0661C9.20154 36.0661 8.98279 36.0165 8.78289 35.9209L6.26246 34.4781C6.07593 34.362 5.92027 34.2025 5.80878 34.0132C5.69729 33.8239 5.63326 33.6104 5.62219 33.391V11.6485C5.6319 11.4177 5.702 11.1935 5.82546 10.9983L9.61623 13.1725C9.49428 13.3757 9.42313 13.5993 9.42313 13.2538V34.9963C9.42313 35.9209 9.68738 36.1342 10.0634 35.9209Z" fill="#333333"/>
<path id="Vector_3" opacity="0.4" d="M28.4786 2.72809C28.4278 2.40297 28.1737 2.29121 27.8587 2.47409L10.0633 12.7662C9.8778 12.8826 9.72414 13.0432 9.61613 13.2336L5.81519 11.0593C5.92643 10.8741 6.07959 10.7175 6.26236 10.6021L24.0577 0.310005C24.2545 0.210058 24.4722 0.157959 24.6929 0.157959C24.9137 0.157959 25.1313 0.210058 25.3281 0.310005L27.8485 1.74257C28.0197 1.85025 28.165 1.99445 28.2739 2.16482C28.3828 2.3352 28.4527 2.52755 28.4786 2.72809Z" fill="white"/>
<path id="Vector_4" d="M3.88432 27.7826C3.4778 27.5387 0.439072 25.8318 0.347605 25.7506C0.272458 25.7057 0.20826 25.6446 0.159655 25.5719C0.111051 25.4991 0.0792619 25.4164 0.0666107 25.3298C0.0539595 25.2432 0.0607705 25.1549 0.0865222 25.0713C0.112274 24.9877 0.156313 24.9108 0.215482 24.8463L5.62217 18.6487L9.42311 20.8331L3.77251 26.8682C3.71228 26.9322 3.66686 27.0087 3.63949 27.0922C3.61212 27.1758 3.60348 27.2643 3.61415 27.3515C3.62482 27.4388 3.65455 27.5226 3.70124 27.5971C3.74793 27.6716 3.81043 27.7349 3.88432 27.7826Z" fill="#37474F"/>
<path id="Vector_5" opacity="0.4" d="M3.88432 27.7826C3.4778 27.5387 0.439072 25.8318 0.347605 25.7506C0.272458 25.7057 0.20826 25.6446 0.159655 25.5719C0.111051 25.4991 0.0792619 25.4164 0.0666107 25.3298C0.0539595 25.2432 0.0607705 25.1549 0.0865222 25.0713C0.112274 24.9877 0.156313 24.9108 0.215482 24.8463L5.62217 18.6487L9.42311 20.8331L3.77251 26.8682C3.71228 26.9322 3.66686 27.0087 3.63949 27.0922C3.61212 27.1758 3.60348 27.2643 3.61415 27.3515C3.62482 27.4388 3.65455 27.5226 3.70124 27.5971C3.74793 27.6716 3.81043 27.7349 3.88432 27.7826Z" fill="white"/>
<path id="Vector_6" d="M27.8587 2.42316L10.0633 12.7153C9.87718 12.8343 9.72204 12.9958 9.6107 13.1867C9.49937 13.3775 9.43504 13.592 9.42306 13.8126V20.8535L3.77245 26.8885C3.6785 26.9624 3.61021 27.064 3.57725 27.1789C3.54428 27.2937 3.54833 27.416 3.58882 27.5285C3.6293 27.6409 3.70418 27.7377 3.80282 27.8053C3.90145 27.8728 4.01884 27.9075 4.13834 27.9045L9.42306 27.5185V35.5957C9.42306 36.0021 9.70763 36.1647 10.0633 35.9615L27.8587 25.6693C28.0424 25.5486 28.1952 25.3864 28.3046 25.1958C28.4141 25.0052 28.4772 24.7915 28.4888 24.5721V2.82957C28.4888 2.38253 28.2042 2.21996 27.8587 2.42316Z" fill="#37474F"/>
</g>
<path id="freepik  X  inject 10" d="M24.3628 21.7171L20.7142 18.984L24.4745 11.7907C24.643 11.47 24.6772 11.0956 24.5695 10.7498C24.4618 10.404 24.2211 10.1151 23.9004 9.94665C23.5796 9.77824 23.205 9.74411 22.8591 9.85176C22.5132 9.95941 22.2242 10.2 22.0558 10.5207L18.4987 17.3178L15.2465 14.859C15.1037 14.751 14.941 14.6721 14.7677 14.6268C14.5944 14.5816 14.4139 14.571 14.2365 14.5955C14.0591 14.62 13.8882 14.6793 13.7337 14.7698C13.5792 14.8603 13.444 14.9804 13.3359 15.1232C13.2278 15.2659 13.1489 15.4286 13.1037 15.6019C13.0584 15.7751 13.0478 15.9556 13.0723 16.1329C13.0968 16.3103 13.1561 16.4811 13.2467 16.6356C13.3372 16.7901 13.4573 16.9252 13.6001 17.0333L17.2182 19.7663L13.6103 26.6548C13.4423 26.9769 13.4089 27.3525 13.5175 27.6992C13.6261 28.0458 13.8678 28.3353 14.1896 28.504C14.3848 28.6033 14.6006 28.6555 14.8197 28.6564C15.0689 28.6567 15.3135 28.5887 15.5268 28.4597C15.74 28.3308 15.9138 28.1457 16.0291 27.9248L19.4236 21.4427L22.6859 23.9015C22.975 24.1176 23.3378 24.2111 23.6955 24.1617C24.0531 24.1122 24.3769 23.9238 24.5965 23.6373C24.8193 23.3513 24.9197 22.9888 24.8759 22.629C24.8321 22.2692 24.6476 21.9413 24.3628 21.7171Z" fill="#F5F7FA"/>
</g>
</g>
</svg>
