<svg width="26" height="28" viewBox="0 0 26 28" fill="none" xmlns="http://www.w3.org/2000/svg">
<g id="freepik  text box  inject 10">
<g id="freepik    inject 10">
<g id="freepik  speech bubble  inject 10">
<g id="freepik  speach bubble  inject 10">
<path id="Vector" d="M22.0677 0.364475L0.583192 12.7496C0.427021 12.848 0.296655 12.9824 0.20296 13.1415C0.109265 13.3005 0.0549559 13.4797 0.0445557 13.664V25.663C0.0549559 25.8473 0.109265 26.0264 0.20296 26.1855C0.296655 26.3446 0.427021 26.4789 0.583192 26.5774L2.70725 27.7864C2.86632 27.8608 3.03979 27.8994 3.2154 27.8994C3.39101 27.8994 3.56448 27.8608 3.72355 27.7864L25.269 15.3607C25.4224 15.2577 25.5499 15.1207 25.6416 14.9603C25.7333 14.7999 25.7866 14.6205 25.7975 14.4361V2.44727C25.7871 2.26298 25.7328 2.08383 25.6391 1.92478C25.5454 1.76572 25.415 1.63135 25.2589 1.53287L23.145 0.323826C22.9738 0.249816 22.7881 0.215048 22.6017 0.22208C22.4153 0.229112 22.2329 0.277775 22.0677 0.364475Z" fill="#4CAF4F"/>
<path id="Vector_2" opacity="0.4" d="M22.0677 0.364475L0.583192 12.7496C0.427021 12.848 0.296655 12.9824 0.20296 13.1415C0.109265 13.3005 0.0549559 13.4797 0.0445557 13.664V25.663C0.0549559 25.8473 0.109265 26.0264 0.20296 26.1855C0.296655 26.3446 0.427021 26.4789 0.583192 26.5774L2.70725 27.7864C2.86632 27.8608 3.03979 27.8994 3.2154 27.8994C3.39101 27.8994 3.56448 27.8608 3.72355 27.7864L25.269 15.3607C25.4224 15.2577 25.5499 15.1207 25.6416 14.9603C25.7333 14.7999 25.7866 14.6205 25.7975 14.4361V2.44727C25.7871 2.26298 25.7328 2.08383 25.6391 1.92478C25.5454 1.76572 25.415 1.63135 25.2589 1.53287L23.145 0.323826C22.9738 0.249816 22.7881 0.215048 22.6017 0.22208C22.4153 0.229112 22.2329 0.277775 22.0677 0.364475Z" fill="#103E13"/>
<path id="Vector_3" d="M25.7867 2.38622C25.7867 2.12206 25.5327 2.03063 25.2583 2.18303L3.77374 14.558C3.61671 14.6559 3.48729 14.7923 3.39771 14.9542L0.206543 13.1254C0.292046 12.9665 0.418328 12.8332 0.57241 12.7393L22.0569 0.364386C22.2245 0.281916 22.4088 0.239014 22.5956 0.239014C22.7823 0.239014 22.9666 0.281916 23.1342 0.364386L25.2481 1.57342C25.393 1.65998 25.5166 1.77795 25.6098 1.91862C25.703 2.0593 25.7635 2.21909 25.7867 2.38622Z" fill="#4CAF4F"/>
<path id="Vector_4" d="M25.269 2.15265L3.77432 14.5581C3.61868 14.6587 3.48946 14.7952 3.3975 14.956C3.30554 15.1169 3.25354 15.2975 3.24585 15.4826V27.4715C3.24585 27.8068 3.47959 27.949 3.77432 27.7763L25.269 15.3607C25.4241 15.2595 25.5528 15.1229 25.6447 14.9621C25.7366 14.8014 25.789 14.6211 25.7975 14.4361V2.44729C25.7975 2.15265 25.6145 2.01041 25.269 2.15265Z" fill="#4CAF4F"/>
<g id="Group" opacity="0.2">
<path id="Vector_5" opacity="0.2" d="M25.269 2.15265L3.77432 14.5581C3.61868 14.6587 3.48946 14.7952 3.3975 14.956C3.30554 15.1169 3.25354 15.2975 3.24585 15.4826V27.4715C3.24585 27.8068 3.47959 27.949 3.77432 27.7763L25.269 15.3607C25.4241 15.2595 25.5528 15.1229 25.6447 14.9621C25.7366 14.8014 25.789 14.6211 25.7975 14.4361V2.44729C25.7975 2.15265 25.6145 2.01041 25.269 2.15265Z" fill="#103E13"/>
</g>
</g>
</g>
</g>
<path id="Vector_6" d="M8.55101 17.6264C8.55101 17.728 8.55101 17.8499 8.55101 18.0125V19.0285C8.55101 19.191 8.55101 19.3129 8.55101 19.4044C8.55989 19.548 8.58028 19.6907 8.61199 19.8311C8.63331 19.945 8.68612 20.0505 8.76443 20.1359C8.83444 20.2078 8.92856 20.2512 9.02867 20.2578C9.16672 20.2483 9.29987 20.2027 9.41486 20.1258C9.56377 20.0527 9.69541 19.9488 9.80105 19.821C9.89791 19.7176 9.98 19.6014 10.045 19.4755C10.1085 19.3628 10.1596 19.2436 10.1974 19.1199C10.1974 18.998 10.2584 18.8964 10.2787 18.8049C10.2885 18.7072 10.3125 18.6114 10.3498 18.5205C10.3877 18.4521 10.4441 18.3958 10.5125 18.3579L11.4068 17.8397C11.4068 17.8397 11.4881 17.8397 11.5084 17.8397C11.5257 17.8569 11.5392 17.8776 11.548 17.9003C11.5567 17.9231 11.5606 17.9475 11.5592 17.9718C11.55 18.3502 11.4919 18.7259 11.3865 19.0894C11.2745 19.4675 11.1211 19.8321 10.9291 20.1766C10.7394 20.5142 10.5146 20.8309 10.2584 21.1214C10.0167 21.3961 9.73175 21.6294 9.41486 21.8123C9.15037 21.982 8.8448 22.0768 8.53068 22.0866C8.28974 22.0895 8.05562 22.0067 7.87009 21.853C7.66893 21.6747 7.52412 21.4417 7.45341 21.1824C7.34706 20.8538 7.28886 20.5116 7.28064 20.1664C7.28064 19.8819 7.28064 19.5771 7.28064 19.252C7.28064 18.9269 7.28064 18.5916 7.28064 18.2868C7.29611 17.8829 7.35057 17.4814 7.44325 17.0879C7.5427 16.6874 7.68584 16.2989 7.87009 15.9296C8.04565 15.564 8.26768 15.2225 8.53068 14.9136C8.78331 14.6202 9.08192 14.3697 9.41486 14.172C9.67045 14.0153 9.9595 13.9213 10.2584 13.8976C10.4935 13.8797 10.7283 13.9366 10.9291 14.0602C11.135 14.1956 11.2945 14.3905 11.3865 14.619C11.502 14.91 11.5606 15.2204 11.5592 15.5334C11.5582 15.6009 11.5408 15.6672 11.5084 15.7264C11.4891 15.7799 11.4536 15.8261 11.4068 15.8585L10.5125 16.3767C10.4312 16.3767 10.3803 16.4275 10.3498 16.3767C10.3095 16.3197 10.285 16.2531 10.2787 16.1836C10.2787 16.1125 10.2787 16.0313 10.1974 15.95C10.1612 15.8782 10.109 15.8157 10.045 15.7671C9.97139 15.7233 9.88657 15.7021 9.80105 15.7061C9.66273 15.7217 9.53025 15.7705 9.41486 15.8484C9.26451 15.9281 9.13286 16.0389 9.02867 16.1735C8.91978 16.298 8.83066 16.4385 8.76443 16.5901C8.69409 16.7423 8.64289 16.9027 8.61199 17.0676C8.5791 17.2523 8.55872 17.4389 8.55101 17.6264Z" fill="#F5F7FA"/>
<path id="Vector_7" d="M14.4353 11.3475C14.6765 11.1919 14.9522 11.0977 15.2382 11.0732C15.4598 11.0565 15.6816 11.1023 15.8785 11.2053C16.0539 11.3111 16.1977 11.4619 16.2952 11.6421C16.3967 11.8329 16.4491 12.0459 16.4476 12.2619C16.4619 12.322 16.4619 12.3847 16.4476 12.4448C16.4303 12.4994 16.3943 12.5461 16.346 12.5769L15.4516 13.095C15.3983 13.1088 15.3424 13.1088 15.289 13.095L15.1772 13.0341L15.1061 12.9629C15.0713 12.9279 15.0299 12.9003 14.9841 12.8817C14.9139 12.8656 14.8409 12.8656 14.7707 12.8817C14.6643 12.892 14.5625 12.9306 14.476 12.9934C14.3874 13.0451 14.3025 13.1028 14.2219 13.1661C14.1436 13.226 14.0721 13.2941 14.0085 13.3693C13.9482 13.4479 13.897 13.5331 13.856 13.6233C13.8187 13.7169 13.8014 13.8173 13.8052 13.918C13.7953 13.9976 13.8172 14.0779 13.8662 14.1415C13.8955 14.1698 13.9309 14.1909 13.9697 14.2032C14.0085 14.2156 14.0496 14.2188 14.0898 14.2126C14.2271 14.2073 14.3635 14.1869 14.4963 14.1517L15.1264 13.9891C15.3407 13.9259 15.5638 13.8985 15.787 13.9078C15.9574 13.9137 16.1213 13.9742 16.2545 14.0806C16.3919 14.2102 16.4905 14.3756 16.5391 14.5581C16.6075 14.8199 16.6383 15.0902 16.6305 15.3607C16.6278 15.7056 16.573 16.0482 16.4679 16.3767C16.3634 16.7316 16.2166 17.0727 16.0309 17.3927C15.8414 17.7021 15.6125 17.9855 15.35 18.236C15.0992 18.4895 14.8155 18.7082 14.5065 18.8863C14.2485 19.0508 13.9567 19.155 13.6528 19.1911C13.4335 19.2204 13.2106 19.1815 13.0142 19.0797C12.8178 18.9779 12.6576 18.8181 12.5552 18.6221C12.4515 18.4027 12.396 18.1637 12.3926 17.9211C12.3963 17.8539 12.4136 17.7883 12.4434 17.728C12.4601 17.6787 12.4921 17.6359 12.5349 17.6061L13.4394 17.0879C13.4837 17.0556 13.5369 17.0378 13.5918 17.0371C13.6307 17.0413 13.6668 17.0593 13.6934 17.0879L13.7849 17.1692C13.8204 17.2196 13.8698 17.2584 13.9272 17.281C14.0035 17.3033 14.0846 17.3033 14.1609 17.281C14.2848 17.2712 14.4039 17.2292 14.5065 17.1591C14.7338 17.0332 14.9396 16.872 15.1163 16.6815C15.271 16.5283 15.3587 16.3201 15.3602 16.1024C15.3648 16.062 15.3588 16.021 15.3428 15.9836C15.3268 15.9461 15.3012 15.9136 15.2687 15.8891C15.1816 15.8704 15.0916 15.8704 15.0045 15.8891C14.8496 15.9056 14.6965 15.9362 14.5471 15.9805L13.8865 16.1532C13.7162 16.2163 13.5322 16.2326 13.3534 16.2004C13.1747 16.1683 13.0078 16.0888 12.8702 15.9703C12.6119 15.604 12.4962 15.156 12.545 14.7105C12.5454 14.3909 12.5899 14.073 12.6771 13.7656C12.7669 13.4328 12.8966 13.1122 13.0633 12.8105C13.2338 12.504 13.4383 12.2177 13.6731 11.9571C13.8958 11.7175 14.1526 11.5121 14.4353 11.3475Z" fill="#F5F7FA"/>
<path id="Vector_8" d="M19.3643 8.47215C19.6075 8.3223 19.8826 8.2318 20.1672 8.20799C20.3856 8.19048 20.6044 8.23633 20.7973 8.34006C20.9811 8.43848 21.1301 8.59101 21.2242 8.77695C21.3223 8.96895 21.3745 9.18111 21.3766 9.39671C21.3909 9.45684 21.3909 9.51946 21.3766 9.57959C21.3534 9.63085 21.3186 9.67605 21.275 9.71167L20.3705 10.2298C20.321 10.2461 20.2675 10.2461 20.218 10.2298C20.173 10.2262 20.1303 10.2084 20.0961 10.179L20.0351 10.1079C20.0004 10.0729 19.9589 10.0452 19.9131 10.0266C19.8429 10.0105 19.77 10.0105 19.6997 10.0266C19.5939 10.0457 19.4934 10.0873 19.405 10.1485C19.3142 10.1966 19.229 10.2546 19.1509 10.3213C19.0726 10.3811 19.0011 10.4492 18.9375 10.5245C18.8746 10.6012 18.8232 10.6868 18.7851 10.7785C18.7445 10.8714 18.7238 10.9717 18.7241 11.0731C18.7191 11.1539 18.7445 11.2336 18.7952 11.2966C18.8229 11.3241 18.8566 11.3448 18.8936 11.3571C18.9306 11.3694 18.97 11.3731 19.0086 11.3678C19.1494 11.3633 19.2892 11.3428 19.4253 11.3068L20.0554 11.1442C20.2651 11.0759 20.4858 11.0483 20.7059 11.063C20.8801 11.0642 21.0487 11.1252 21.1835 11.2357C21.3156 11.3638 21.4105 11.5253 21.4579 11.703C21.5296 11.9679 21.5638 12.2415 21.5596 12.5158C21.5539 12.8605 21.4992 13.2026 21.3969 13.5319C21.1808 14.2243 20.7968 14.8525 20.279 15.3607C20.0255 15.6111 19.7422 15.8295 19.4355 16.0109C19.1747 16.1697 18.8842 16.2735 18.5818 16.3157C18.3544 16.3412 18.1245 16.2988 17.9212 16.1938C17.7345 16.0866 17.5828 15.9279 17.4842 15.7366C17.3745 15.523 17.3187 15.2858 17.3216 15.0457C17.3072 14.9822 17.3072 14.9162 17.3216 14.8527C17.3449 14.8043 17.3798 14.7624 17.4232 14.7307L18.3277 14.2126C18.3887 14.2126 18.4395 14.1516 18.47 14.2126C18.5066 14.2026 18.5452 14.2026 18.5818 14.2126L18.6631 14.304C18.7076 14.3492 18.759 14.387 18.8155 14.4158C18.8919 14.4381 18.973 14.4381 19.0493 14.4158C19.1717 14.3997 19.2894 14.3582 19.3948 14.2939C19.62 14.1648 19.8253 14.0039 20.0046 13.8163C20.1593 13.6631 20.247 13.4549 20.2485 13.2372C20.2532 13.1968 20.2472 13.1558 20.2312 13.1184C20.2151 13.0809 20.1896 13.0484 20.1571 13.0238C20.0706 13.0001 19.9793 13.0001 19.8928 13.0238C19.7379 13.0404 19.5848 13.071 19.4355 13.1153L18.7749 13.2778C18.6055 13.3423 18.4219 13.3602 18.2432 13.3299C18.0645 13.2995 17.8972 13.2219 17.7586 13.1051C17.4968 12.7363 17.3777 12.2851 17.4232 11.8351C17.4279 11.5152 17.4758 11.1974 17.5655 10.8902C17.6509 10.5593 17.7808 10.2414 17.9517 9.94535C18.1185 9.63338 18.3233 9.34331 18.5615 9.08175C18.799 8.84168 19.0693 8.63644 19.3643 8.47215Z" fill="#F5F7FA"/>
</g>
</svg>
