<svg width="37" height="59" viewBox="0 0 37 59" fill="none" xmlns="http://www.w3.org/2000/svg">
<g id="freepik  Box  inject 10">
<g id="freepik  speach bubble  inject 10">
<path id="Vector" d="M30.2895 1.0725L1.22343 17.8366C0.882008 18.059 0.598113 18.3591 0.394975 18.7123C0.191838 19.0655 0.075227 19.4617 0.0546875 19.8686V54.9513C0.072763 55.3587 0.18833 55.7559 0.391692 56.1095C0.595053 56.463 0.880279 56.7627 1.22343 56.9833L3.43896 58.2329C3.80134 58.416 4.20168 58.5114 4.6077 58.5114C5.01372 58.5114 5.41405 58.416 5.77644 58.2329L34.8832 41.4689C35.2246 41.2464 35.5085 40.9464 35.7116 40.5932C35.9148 40.24 36.0314 39.8437 36.0519 39.4368V4.27291C36.0327 3.86454 35.9156 3.46678 35.7104 3.11313C35.5053 2.75949 35.2181 2.46034 34.873 2.2409L32.6677 0.991204C32.2936 0.81387 31.8825 0.728704 31.4687 0.742846C31.0549 0.756987 30.6506 0.870041 30.2895 1.0725Z" fill="#4CAF4F"/>
<path id="Vector_2" opacity="0.2" d="M5.73579 58.1719C5.37183 58.3497 4.97211 58.4421 4.56705 58.4421C4.16199 58.4421 3.76226 58.3497 3.39831 58.1719L1.22343 56.9223C0.878507 56.7036 0.59191 56.4043 0.388315 56.0504C0.18472 55.6964 0.0702251 55.2983 0.0546875 54.8903V19.8483C0.0748735 19.4261 0.204455 19.0165 0.43072 18.6595L4.95324 21.2808C4.74058 21.6272 4.62152 22.0228 4.6077 22.4289V57.5014C4.56705 58.1821 5.04471 58.5682 5.73579 58.1719Z" fill="#103E13"/>
<path id="Vector_3" opacity="0.5" d="M35.9909 4.11035C35.8995 3.52106 35.4218 3.30771 34.8425 3.64299L5.73577 20.4173C5.39096 20.6287 5.10723 20.9263 4.91257 21.2808L0.379883 18.6596C0.574089 18.3221 0.850217 18.0391 1.18276 17.8366L30.2895 1.0725C30.6519 0.889448 31.0522 0.794067 31.4582 0.794067C31.8643 0.794067 32.2646 0.889448 32.627 1.0725L34.8323 2.32217C35.1417 2.5206 35.405 2.78277 35.6048 3.09115C35.8046 3.39953 35.9363 3.74701 35.9909 4.11035Z" fill="white"/>
<path id="Vector_4" d="M34.8425 3.64306L5.73576 20.4173C5.39376 20.6391 5.10943 20.9391 4.90622 21.2924C4.70301 21.6457 4.58674 22.0422 4.56702 22.4493V57.5218C4.56702 58.2635 5.09549 58.5378 5.73576 58.1924L34.8425 41.4283C35.1826 41.2053 35.465 40.9049 35.6664 40.5516C35.8678 40.1984 35.9825 39.8024 36.0011 39.3963V4.27298C36.0011 3.57194 35.4828 3.25698 34.8425 3.64306Z" fill="#4CAF4F"/>
</g>
<g id="freepik    inject 10">
<path id="Vector_5" d="M6.49807 38.5733C6.49107 38.3272 6.53251 38.082 6.62003 37.8519C6.7286 37.6161 6.85428 37.3886 6.99605 37.1712L13.8561 26.0764C13.889 26.0289 13.9264 25.9846 13.9678 25.9443L14.0491 25.8833C14.0843 25.8526 14.1295 25.8357 14.1762 25.8357C14.2229 25.8357 14.268 25.8526 14.3032 25.8833C14.3414 25.9298 14.37 25.9834 14.3874 26.0409C14.4049 26.0984 14.4108 26.1588 14.4049 26.2186V30.5062C14.4155 30.8156 14.3492 31.1228 14.2118 31.4003C14.105 31.6003 13.9862 31.7937 13.8561 31.9794L10.8072 36.5921L13.8561 37.7706C13.9812 37.8092 14.1007 37.8639 14.2118 37.9332C14.3439 38.0145 14.4049 38.238 14.4049 38.5936V42.8811C14.4071 43.0394 14.3723 43.1959 14.3032 43.3384C14.2497 43.4623 14.1614 43.5681 14.0491 43.6431H13.9678C13.9313 43.6536 13.8926 43.6536 13.8561 43.6431L6.99605 40.4732C6.85316 40.418 6.72462 40.3311 6.62003 40.2192C6.52052 40.0471 6.47784 39.848 6.49807 39.6502V38.5733Z" fill="white"/>
<path id="Vector_6" d="M21.4681 19.7568C21.5273 19.518 21.6125 19.2863 21.7221 19.066C21.8289 18.8396 22.0028 18.6516 22.2201 18.5275L24.5169 17.1965C24.5554 17.1643 24.604 17.1466 24.6542 17.1466C24.7043 17.1466 24.7529 17.1643 24.7914 17.1965C24.8321 17.2437 24.863 17.2986 24.8822 17.3579C24.9014 17.4173 24.9085 17.4798 24.9031 17.542C24.9107 17.6265 24.9107 17.7115 24.9031 17.796L19.1001 42.5255C19.0487 42.7588 18.9667 42.9843 18.8562 43.1961C18.7496 43.431 18.5719 43.6265 18.348 43.7549L16.0918 45.0554C16.055 45.0869 16.0082 45.1042 15.9597 45.1042C15.9113 45.1042 15.8644 45.0869 15.8276 45.0554C15.7869 45.0082 15.756 44.9533 15.7368 44.8939C15.7176 44.8346 15.7105 44.7721 15.7158 44.7099C15.7033 44.6257 15.7033 44.5401 15.7158 44.4559L21.4681 19.7568Z" fill="white"/>
<path id="Vector_7" d="M34.0804 23.7599C34.0856 24.0059 34.0443 24.2507 33.9585 24.4813C33.8474 24.7125 33.7218 24.9364 33.5824 25.1518L26.7123 36.2466C26.6848 36.2952 26.6506 36.3397 26.6107 36.3787L26.5293 36.4397C26.4277 36.5006 26.3363 36.5006 26.2753 36.4397C26.2366 36.3935 26.2077 36.34 26.1902 36.2824C26.1728 36.2248 26.1671 36.1642 26.1736 36.1044V31.827C26.1607 31.5206 26.2272 31.2161 26.3667 30.9431C26.4989 30.7094 26.6107 30.5163 26.7123 30.3639L29.7612 25.731L26.7123 24.5829C26.5884 24.54 26.4719 24.4783 26.3667 24.4C26.2346 24.3086 26.1736 24.085 26.1736 23.7396V19.4521C26.1714 19.2938 26.2062 19.1373 26.2753 18.9949C26.3255 18.8689 26.4145 18.7622 26.5293 18.6901H26.6107H26.7123L33.5824 21.86C33.7253 21.9152 33.8539 22.0021 33.9585 22.114C34.0537 22.2877 34.0961 22.4855 34.0804 22.683V23.7599Z" fill="white"/>
</g>
</g>
</svg>
